<?xml version="1.0" standalone="no"?>
<!DOCTYPE svg PUBLIC "-//W3C//DTD SVG 20010904//EN"
 "http://www.w3.org/TR/2001/REC-SVG-20010904/DTD/svg10.dtd">
<svg version="1.0" xmlns="http://www.w3.org/2000/svg"
 width="752.000000pt" height="752.000000pt" viewBox="0 0 752.000000 752.000000"
 preserveAspectRatio="xMidYMid meet">

<g transform="translate(0.000000,752.000000) scale(0.100000,-0.100000)"
fill="#000000" stroke="none">
<path d="M2755 5065 c4 -16 9 -36 11 -44 8 -26 -18 -93 -51 -130 -19 -21 -62
-53 -96 -71 -58 -31 -66 -32 -187 -35 -142 -2 -206 -20 -266 -73 -38 -33 -120
-56 -266 -74 -114 -15 -188 0 -225 44 -21 25 -28 29 -36 17 -18 -29 -9 -65 26
-99 41 -40 111 -58 260 -67 l100 -6 38 -116 c21 -64 37 -123 37 -131 0 -22
-48 -120 -76 -158 -54 -70 -41 -147 31 -182 87 -42 231 -34 353 20 l44 20 95
-96 c94 -94 114 -125 157 -244 25 -70 71 -119 142 -150 52 -24 73 -41 121
-101 88 -111 154 -179 178 -185 20 -5 23 -14 28 -92 5 -58 15 -107 32 -147 15
-38 25 -80 25 -113 0 -95 -59 -232 -140 -324 -22 -26 -40 -53 -40 -62 0 -38
84 -47 200 -20 60 13 69 18 75 42 11 44 34 72 60 72 13 0 27 5 30 10 3 6 17
10 30 10 13 0 47 5 75 12 48 11 54 16 70 54 14 32 25 42 49 47 37 8 39 25 16
114 -20 77 -19 136 4 208 11 33 29 105 40 160 29 138 53 182 120 217 44 23 66
28 128 28 84 0 166 -18 251 -56 70 -31 97 -56 128 -117 14 -27 30 -47 36 -45
6 2 19 30 29 62 34 110 134 206 268 256 l54 21 36 -42 c133 -153 213 -288 232
-390 10 -56 9 -73 -6 -124 -20 -71 -58 -141 -120 -221 -25 -32 -45 -67 -45
-78 0 -12 -14 -39 -30 -60 -17 -22 -30 -43 -30 -47 0 -11 93 -29 148 -29 66 0
90 19 98 80 6 48 8 50 39 50 39 0 50 21 64 120 9 69 107 303 126 302 22 -1 39
-80 39 -192 1 -109 -1 -119 -30 -180 -17 -36 -59 -95 -92 -133 -90 -99 -83
-127 33 -127 104 1 185 45 185 102 0 13 8 18 30 18 22 0 33 6 39 23 5 12 10
132 13 267 3 205 7 251 21 279 22 44 22 109 -1 141 -9 14 -33 41 -53 62 -75
76 -91 240 -38 404 17 53 36 124 43 158 l13 61 15 -80 c21 -107 165 -526 205
-596 41 -72 135 -174 173 -187 24 -9 34 -7 52 8 l22 18 -32 118 c-45 163 -112
296 -208 409 -112 133 -197 329 -223 516 -25 181 -102 291 -254 359 -35 17
-66 20 -193 20 -169 0 -326 -13 -424 -36 -102 -24 -418 -36 -620 -24 -206 12
-332 36 -421 79 -85 41 -182 61 -297 61 -71 0 -102 4 -130 19 -52 26 -184 66
-267 81 l-70 12 32 65 c18 35 35 80 39 99 9 49 -9 104 -47 139 l-31 30 7 -30z"/>
</g>
</svg>
