<svg width="476.705" height="75.203" viewBox="0 0 476.705 75.203" xmlns="http://www.w3.org/2000/svg"><g id="svgGroup" stroke-linecap="round" fill-rule="evenodd" font-size="9pt" stroke="#000" stroke-width="0.25mm" fill="#000" style="stroke:#000;stroke-width:0.25mm;fill:#000"><path d="M 131.4 74 L 122.4 74 L 122.4 0 L 131.4 0 L 131.4 30.3 Q 134.2 26.2 138.5 23.5 Q 142.8 20.8 148.6 20.8 A 18.676 18.676 0 0 1 158.211 23.069 A 13.232 13.232 0 0 1 161.75 26.1 A 20.3 20.3 0 0 1 166.032 37.978 A 32.366 32.366 0 0 1 166.1 40.1 L 166.1 74 L 157.1 74 L 157.1 41.1 A 14.617 14.617 0 0 0 154.67 32.328 A 10.796 10.796 0 0 0 154.5 32.1 Q 151.9 28.7 147.2 28.7 Q 142.6 28.7 138.45 31.95 Q 134.3 35.2 131.4 39.6 L 131.4 74 Z M 49.7 71 L 40.8 75.2 L 32.1 56.2 A 24.891 24.891 0 0 0 26.194 47.856 A 16.388 16.388 0 0 0 23.8 46.1 A 22.815 22.815 0 0 0 13.427 43.177 A 37.22 37.22 0 0 0 11 43.1 L 9.5 43.1 L 9.5 74 L 0 74 L 0 4.2 Q 5.3 3.7 10.15 3.45 Q 15 3.2 20.5 3.2 A 43.868 43.868 0 0 1 31.334 4.4 A 21.866 21.866 0 0 1 39.75 8.4 Q 46.2 13.6 46.2 21.8 Q 46.2 29.1 41.85 33.55 A 24.169 24.169 0 0 1 32.703 39.13 A 40.288 40.288 0 0 1 29.3 40.2 Q 32 41.4 34.1 43.05 Q 36.2 44.7 38.15 47.45 A 42.545 42.545 0 0 1 41.85 54.056 A 71.169 71.169 0 0 1 42.1 54.6 L 49.7 71 Z M 181.1 55.8 L 181.1 22 L 190.1 22 L 190.1 54.6 Q 190.1 60.7 192.7 63.95 Q 195.3 67.2 200.3 67.2 Q 204.4 67.2 208.25 65.55 Q 212.1 63.9 215.1 61.1 L 215.1 22 L 224.1 22 L 224.1 60.5 Q 224.1 64.8 225.95 66.15 Q 227.8 67.5 230 67.5 L 228.1 74.5 Q 218.8 74.5 216.6 67.1 Q 213.1 70.7 208.5 72.95 Q 203.9 75.2 198.6 75.2 Q 194.1 75.2 190.1 73.3 Q 186.1 71.4 183.6 67.15 Q 181.1 62.9 181.1 55.8 Z M 307.6 73.8 L 307.6 4.2 A 148.873 148.873 0 0 1 315.027 3.577 A 258.003 258.003 0 0 1 316.3 3.5 A 204.226 204.226 0 0 1 327.368 3.201 A 292.995 292.995 0 0 1 328.2 3.2 A 47.641 47.641 0 0 1 339.506 4.408 A 24.697 24.697 0 0 1 347.9 8.05 Q 354.8 12.9 354.8 21.2 Q 354.8 26.7 351.85 30.55 Q 348.9 34.4 343.3 36.9 A 24.448 24.448 0 0 1 352.299 42.144 A 16.894 16.894 0 0 1 353.6 43.55 Q 357.1 47.8 357.1 54 Q 357.1 63.5 349.6 69.15 A 27.091 27.091 0 0 1 338.745 73.776 A 53.246 53.246 0 0 1 327.8 74.8 Q 321.7 74.8 316.25 74.5 A 160.198 160.198 0 0 1 309.341 73.994 A 70.344 70.344 0 0 1 307.6 73.8 Z M 96.3 26.2 L 96.3 22 L 104.5 22 L 104.5 61.4 Q 104.5 65.2 106.35 66.35 Q 108.2 67.5 110.4 67.5 L 108.5 74.5 Q 98.9 74.5 96.9 66.7 Q 94.6 69.9 90.65 72.55 A 17.446 17.446 0 0 1 80.979 75.197 A 27.622 27.622 0 0 1 80.6 75.2 Q 74.1 75.2 68.8 71.9 Q 63.5 68.6 60.35 62.55 A 30.168 30.168 0 0 1 57.203 48.81 A 42.169 42.169 0 0 1 57.2 48.3 Q 57.2 40.5 60.35 34.3 Q 63.5 28.1 69.05 24.45 Q 74.6 20.8 81.8 20.8 Q 86.3 20.8 89.95 22.35 Q 93.6 23.9 96.3 26.2 Z M 405.2 26.2 L 405.2 22 L 413.4 22 L 413.4 61.4 Q 413.4 65.2 415.25 66.35 Q 417.1 67.5 419.3 67.5 L 417.4 74.5 Q 407.8 74.5 405.8 66.7 Q 403.5 69.9 399.55 72.55 A 17.446 17.446 0 0 1 389.879 75.197 A 27.622 27.622 0 0 1 389.5 75.2 Q 383 75.2 377.7 71.9 Q 372.4 68.6 369.25 62.55 A 30.168 30.168 0 0 1 366.103 48.81 A 42.169 42.169 0 0 1 366.1 48.3 Q 366.1 40.5 369.25 34.3 Q 372.4 28.1 377.95 24.45 Q 383.5 20.8 390.7 20.8 Q 395.2 20.8 398.85 22.35 Q 402.5 23.9 405.2 26.2 Z M 241.5 57.7 L 241.5 0 L 250.5 0 L 250.5 56.8 A 14.295 14.295 0 0 0 251.792 63.376 A 7.34 7.34 0 0 0 252.75 64.8 Q 255 67.4 259 67.4 Q 260.9 67.4 262.75 66.95 Q 264.6 66.5 265.9 65.9 L 268.1 73.2 Q 266.3 74 263.65 74.6 Q 261 75.2 257.8 75.2 Q 253.2 75.2 249.5 73.45 Q 245.8 71.7 243.65 67.8 Q 241.5 63.9 241.5 57.7 Z M 430.8 57.7 L 430.8 0 L 439.8 0 L 439.8 56.8 A 14.295 14.295 0 0 0 441.092 63.376 A 7.34 7.34 0 0 0 442.05 64.8 Q 444.3 67.4 448.3 67.4 Q 450.2 67.4 452.05 66.95 Q 453.9 66.5 455.2 65.9 L 457.4 73.2 Q 455.6 74 452.95 74.6 Q 450.3 75.2 447.1 75.2 Q 442.5 75.2 438.8 73.45 Q 435.1 71.7 432.95 67.8 Q 430.8 63.9 430.8 57.7 Z M 474.9 74 L 465.9 74 L 465.9 22 L 474.9 22 L 474.9 74 Z M 95.5 60.7 L 95.5 32.8 Q 92.8 30.9 89.55 29.75 Q 86.3 28.6 82.7 28.6 Q 77.9 28.6 74.25 31.05 Q 70.6 33.5 68.5 37.85 Q 66.4 42.2 66.4 48 Q 66.4 53.6 68.5 57.95 Q 70.6 62.3 74.3 64.75 Q 78 67.2 82.6 67.2 Q 86.4 67.2 89.8 65.35 Q 93.2 63.5 95.5 60.7 Z M 404.4 60.7 L 404.4 32.8 Q 401.7 30.9 398.45 29.75 Q 395.2 28.6 391.6 28.6 Q 386.8 28.6 383.15 31.05 Q 379.5 33.5 377.4 37.85 Q 375.3 42.2 375.3 48 Q 375.3 53.6 377.4 57.95 Q 379.5 62.3 383.2 64.75 Q 386.9 67.2 391.5 67.2 Q 395.3 67.2 398.7 65.35 Q 402.1 63.5 404.4 60.7 Z M 328.5 41.6 L 317.1 41.6 L 317.1 66.3 Q 322.4 66.9 328.5 66.9 A 32.831 32.831 0 0 0 338 65.681 A 17.64 17.64 0 0 0 342.4 63.7 Q 347.4 60.5 347.4 54.4 Q 347.4 48.4 342.5 45 A 19.804 19.804 0 0 0 333.808 41.936 A 39.084 39.084 0 0 0 328.5 41.6 Z M 317.1 11.4 L 317.1 34.2 L 328.1 34.2 A 24.742 24.742 0 0 0 337.69 32.532 A 15.374 15.374 0 0 0 340.65 30.9 Q 345.3 27.6 345.3 22.4 Q 345.3 16.8 340.7 13.85 Q 336.1 10.9 328.1 10.9 Q 324.8 10.9 322.1 11.05 Q 319.4 11.2 317.1 11.4 Z M 9.5 11.6 L 9.5 35.1 L 20.5 35.1 Q 27.7 35.1 32.2 31.9 Q 36.7 28.7 36.7 22.7 Q 36.7 17.7 32.5 14.45 Q 28.3 11.2 20.5 11.2 Q 17.1 11.2 14.4 11.3 Q 11.7 11.4 9.5 11.6 Z M 470.4 13.1 Q 467.8 13.1 465.95 11.2 Q 464.1 9.3 464.1 6.8 Q 464.1 3.9 465.8 2.2 Q 467.5 0.5 470.4 0.5 Q 473 0.5 474.85 2.35 Q 476.7 4.2 476.7 6.8 Q 476.7 9.6 475 11.35 Q 473.3 13.1 470.4 13.1 Z" vector-effect="non-scaling-stroke"/></g></svg>